HIERARCHY
ROOT Hips
{
	OFFSET 0.000000 0.000000 0.000000
	CHANNELS 6 Xposition Yposition Zposition Xrotation Yrotation Zrotation
	JOINT LeftUpLeg_virtual
	{
		OFFSET 0.000000 0.000000 0.000000
		CHANNELS 3 Xrotation Yrotation Zrotation
		JOINT LeftUpLeg
		{
			OFFSET 15.427100 -6.655098 0.678600
			CHANNELS 3 Xrotation Yrotation Zrotation
			JOINT LeftLeg
			{
				OFFSET 4.081073 -39.591068 13.024000
				CHANNELS 3 Xrotation Yrotation Zrotation
				JOINT LeftFoot
				{
					OFFSET -4.081074 -37.707932 -15.979700
					CHANNELS 3 Xrotation Yrotation Zrotation
					JOINT LeftToeBase
					{
						OFFSET 5.346399 -15.068900 20.645000
						CHANNELS 3 Xrotation Yrotation Zrotation
						JOINT LeftToe_End
						{
							OFFSET 2.754700 0.931300 11.300900
							CHANNELS 3 Xrotation Yrotation Zrotation
							End Site
							{
								OFFSET 0 0 0
							}
						}
					}
				}
			}
		}
	}
	JOINT RightUpLeg_virtual
	{
		OFFSET 0.000000 0.000000 0.000000
		CHANNELS 3 Xrotation Yrotation Zrotation
		JOINT RightUpLeg
		{
			OFFSET -15.569500 -6.655098 0.678600
			CHANNELS 3 Xrotation Yrotation Zrotation
			JOINT RightLeg
			{
				OFFSET -4.081825 -39.591045 13.023800
				CHANNELS 3 Xrotation Yrotation Zrotation
				JOINT RightFoot
				{
					OFFSET 4.081824 -37.707954 -15.979600
					CHANNELS 3 Xrotation Yrotation Zrotation
					JOINT RightToeBase
					{
						OFFSET -5.346400 -15.068900 20.645000
						CHANNELS 3 Xrotation Yrotation Zrotation
						JOINT RightToe_End
						{
							OFFSET -2.754700 0.931300 11.300900
							CHANNELS 3 Xrotation Yrotation Zrotation
							End Site
							{
								OFFSET 0 0 0
							}
						}
					}
				}
			}
		}
	}
	JOINT Spine_virtual
	{
		OFFSET 0.000000 0.000000 0.000000
		CHANNELS 3 Xrotation Yrotation Zrotation
		JOINT Spine
		{
			OFFSET -0.279200 12.230698 -2.892100
			CHANNELS 3 Xrotation Yrotation Zrotation
			JOINT Spine1
			{
				OFFSET -0.232667 10.192268 -1.242267
				CHANNELS 3 Xrotation Yrotation Zrotation
				JOINT Spine1_split
				{
					OFFSET -0.232667 10.192268 -1.242267
					CHANNELS 3 Xrotation Yrotation Zrotation
					JOINT Spine2
					{
						OFFSET -0.232667 10.192268 -1.242267
						CHANNELS 3 Xrotation Yrotation Zrotation
						JOINT Neck_virtual
						{
							OFFSET 0.000000 0.000000 0.000000
							CHANNELS 3 Xrotation Yrotation Zrotation
							JOINT Neck
							{
								OFFSET -0.418800 17.814194 8.416900
								CHANNELS 3 Xrotation Yrotation Zrotation
								JOINT Head
								{
									OFFSET 0.000000 7.031097 3.806800
									CHANNELS 3 Xrotation Yrotation Zrotation
									JOINT HeadTop_End
									{
										OFFSET 0.000000 24.646606 12.978600
										CHANNELS 3 Xrotation Yrotation Zrotation
										End Site
										{
											OFFSET 0 0 0
										}
									}
								}
							}
						}
						JOINT LeftShoulder_virtual
						{
							OFFSET 0.000000 0.000000 0.000000
							CHANNELS 3 Xrotation Yrotation Zrotation
							JOINT LeftShoulder
							{
								OFFSET 8.476499 7.247704 -3.868750
								CHANNELS 3 Xrotation Yrotation Zrotation
								JOINT LeftShoulder_split
								{
									OFFSET 8.476499 7.247704 -3.868750
									CHANNELS 3 Xrotation Yrotation Zrotation
									JOINT LeftArm
									{
										OFFSET 9.308998 -2.777710 0.208600
										CHANNELS 3 Xrotation Yrotation Zrotation
										JOINT LeftForeArm
										{
											OFFSET 29.972298 0.000000 0.000000
											CHANNELS 3 Xrotation Yrotation Zrotation
											JOINT LeftHand
											{
												OFFSET 26.026505 0.000000 0.000000
												CHANNELS 3 Xrotation Yrotation Zrotation
												End Site
												{
													OFFSET 0 0 0
												}
											}
										}
									}
								}
							}
						}
						JOINT RightShoulder_virtual
						{
							OFFSET 0.000000 0.000000 0.000000
							CHANNELS 3 Xrotation Yrotation Zrotation
							JOINT RightShoulder
							{
								OFFSET -7.570500 7.247704 -3.868750
								CHANNELS 3 Xrotation Yrotation Zrotation
								JOINT RightShoulder_split
								{
									OFFSET -7.570500 7.247704 -3.868750
									CHANNELS 3 Xrotation Yrotation Zrotation
									JOINT RightArm
									{
										OFFSET -9.308998 -2.777710 0.208500
										CHANNELS 3 Xrotation Yrotation Zrotation
										JOINT RightForeArm
										{
											OFFSET -29.972300 0.000000 0.000000
											CHANNELS 3 Xrotation Yrotation Zrotation
											JOINT RightHand
											{
												OFFSET -26.026505 0.000000 0.000000
												CHANNELS 3 Xrotation Yrotation Zrotation
												End Site
												{
													OFFSET 0 0 0
												}
											}
										}
									}
								}
							}
						}
					}
				}
			}
		}
	}
}
MOTION
Frames: 9
Frame Time: 0.03333333
11.166202 83.837387 -20.070839 0.000000 0.000000 0.000000 8.777610 14.292517 -0.844718 0.448593 10.027215 11.108964 39.238354 -3.224023 4.407385 -7.461115 -8.887592 -19.994308 -17.271426 -0.084555 -2.414906 0.000000 0.000000 0.000000 8.246266 11.967184 -0.600432 -39.790216 -8.986465 -7.223284 43.747532 -0.033364 1.908377 -8.568852 2.714015 -1.482974 -1.776615 1.219820 0.178393 0.000000 0.000000 0.000000 8.924304 11.412815 -0.307016 0.963723 -2.777396 -1.049759 2.619250 -1.623831 1.883572 -1.121551 1.175315 0.103713 0.000000 0.000000 0.000000 2.758920 -2.612001 2.210911 -4.106256 3.018751 0.856478 -12.017605 4.723609 8.189935 0.000000 0.000000 0.000000 1.132121 -1.794019 2.402151 0.939473 1.764466 -0.941995 4.247464 -5.990925 7.131782 -43.771571 -7.503820 -37.398339 173.599749 -63.422650 173.855157 0.000000 0.000000 0.000000 1.473343 -2.870974 1.749216 -0.763484 -18.967280 6.919947 -0.077673 8.915600 -4.320875 -35.530494 9.277567 55.650646 -173.000523 62.621975 174.568338 0.000000 0.000000 0.000000 
11.675845 86.134117 -21.187332 0.000000 0.000000 0.000000 11.337685 15.871534 -2.202639 -11.698738 8.144046 15.545779 51.843864 -3.496551 3.103016 1.415662 -9.944878 -17.433266 -8.109081 0.066255 -4.866061 0.000000 0.000000 0.000000 9.422925 12.132175 -1.340296 -37.565682 -10.378939 -6.282288 41.281014 0.837002 2.245242 -8.918904 2.712303 -0.751369 -5.466920 0.936788 -0.287542 0.000000 0.000000 0.000000 10.370545 11.011152 -0.974228 5.108167 -2.167615 -0.685416 2.702100 -1.171141 0.886126 0.300157 1.375538 0.011623 0.000000 0.000000 0.000000 2.733615 -2.188134 1.554323 -5.208391 2.657215 -1.091711 -15.851249 2.039988 9.709622 0.000000 0.000000 0.000000 1.322227 -1.380834 1.606025 1.095318 0.717514 10.491947 4.340831 -3.253277 2.840728 -59.857708 -6.389047 -35.898969 173.261955 -67.886521 172.853441 0.000000 0.000000 0.000000 1.666806 -2.182780 0.925550 -2.572538 -18.034619 -0.903193 0.729587 6.503796 -4.550097 -53.639255 3.682867 58.603385 -173.087075 66.121067 173.842453 0.000000 0.000000 0.000000 
11.929293 87.758095 -21.504211 0.000000 0.000000 0.000000 13.336404 15.417458 -2.667779 -23.475697 7.506934 19.009502 62.840759 -1.914673 0.685241 8.146629 -7.611605 -10.180651 0.647552 -0.189666 -6.954971 0.000000 0.000000 0.000000 10.761274 11.535133 -1.697346 -35.853415 -11.235254 -6.299734 39.906586 0.077606 2.971185 -9.761141 2.137637 -1.942776 -9.263845 0.426639 -0.266975 0.000000 0.000000 0.000000 11.917226 9.727066 -1.091869 8.441285 -1.523427 -1.082373 3.145012 -0.754411 0.088732 1.584448 1.452031 -0.071860 0.000000 0.000000 0.000000 3.249822 -1.716235 1.066862 -6.368032 2.359934 -2.712261 -19.891860 -0.188879 10.895017 0.000000 0.000000 0.000000 1.981891 -1.032842 0.948391 1.276687 0.219019 20.908874 4.257643 -0.074105 -0.263608 -72.430809 -5.939452 -31.913734 169.603378 -75.797731 168.943267 0.000000 0.000000 0.000000 2.446275 -1.524088 0.215543 -4.127365 -16.379569 -8.993946 1.504495 3.267969 -4.318036 -66.748584 -3.118360 57.783674 -174.188716 70.084571 173.439745 0.000000 0.000000 0.000000 
11.982855 88.937302 -21.498230 0.000000 0.000000 0.000000 14.557099 13.030465 -2.016330 -33.799089 8.439780 20.766645 70.232014 0.252330 -2.018400 11.755146 -3.687516 -1.352728 3.733126 -0.515137 -6.995608 0.000000 0.000000 0.000000 12.189140 9.612274 -1.439137 -35.128797 -11.467818 -7.537353 38.793262 -1.676504 4.060469 -9.577114 1.333658 -3.813353 -12.443606 -0.181913 0.152970 0.000000 0.000000 0.000000 13.343843 7.800854 -0.654489 10.274177 -1.006945 -2.055751 3.775584 -0.445731 -0.282506 1.620409 0.929541 0.336870 0.000000 0.000000 0.000000 4.085275 -1.259413 0.928581 -7.431875 2.158109 -3.464071 -23.140684 -1.627614 11.740160 0.000000 0.000000 0.000000 2.853032 -0.764652 0.714142 1.201713 0.511144 28.132207 3.849341 2.483200 -3.107881 -79.833109 -6.400730 -27.416255 157.128270 -83.341272 156.916056 0.000000 0.000000 0.000000 3.518951 -1.075275 -0.181022 -4.946137 -14.348339 -15.309217 1.946938 0.513728 -3.094365 -72.451136 -8.152336 55.002202 -176.560991 73.518660 173.995927 0.000000 0.000000 0.000000 
11.750691 89.932877 -21.289169 0.000000 0.000000 0.000000 15.193404 9.845445 -0.892176 -42.392628 10.446316 20.796459 73.307314 1.850527 -3.959068 13.588334 -0.804291 5.299442 2.050665 -0.713973 -5.363934 0.000000 0.000000 0.000000 13.595737 6.628278 -0.576340 -35.001096 -10.777372 -9.360131 36.563611 -2.950653 4.981157 -8.083088 1.318235 -4.334242 -14.043358 -0.635850 0.607111 0.000000 0.000000 0.000000 15.092457 5.599655 -0.116839 10.316850 -0.579497 -3.262361 4.458061 -0.269041 -0.146834 1.004638 0.096289 0.504697 0.000000 0.000000 0.000000 4.861146 -0.920231 1.174222 -8.430787 2.015271 -3.208091 -25.017123 -2.136544 12.334672 0.000000 0.000000 0.000000 3.549904 -0.480425 0.946854 0.805190 1.641620 30.055404 2.883909 2.780563 -4.718435 -80.383581 -6.559016 -24.024992 143.217346 -85.882628 143.844535 0.000000 0.000000 0.000000 4.562749 -0.809069 -0.128673 -4.888436 -12.368857 -18.014819 1.942149 -0.312212 -1.779052 -70.392613 -10.561101 52.767846 179.860492 75.391177 176.118449 0.000000 0.000000 0.000000 
11.204874 90.828743 -20.593651 0.000000 0.000000 0.000000 15.750433 6.532384 0.025455 -49.674214 12.653017 19.764062 71.646239 2.453835 -4.717350 15.198183 -0.120405 8.204107 -1.165606 -0.905591 -2.737769 0.000000 0.000000 0.000000 15.031341 3.440863 0.247079 -33.903915 -9.114155 -10.433367 32.779031 -3.285869 5.507603 -6.552264 2.249697 -2.915900 -14.283096 -0.802871 0.946542 0.000000 0.000000 0.000000 17.010173 3.464749 0.009103 8.847008 -0.100753 -4.243663 5.042199 -0.123030 0.377571 0.376412 -0.135062 0.829344 0.000000 0.000000 0.000000 5.230855 -0.644830 1.685489 -9.379582 1.909089 -2.074959 -25.239946 -1.947202 12.688075 0.000000 0.000000 0.000000 4.068148 -0.132074 1.465451 0.385439 3.393349 26.208430 1.841003 0.309607 -5.203942 -73.325270 -5.550264 -22.764754 163.851116 -82.535466 165.407729 0.000000 0.000000 0.000000 5.418193 -0.549983 0.340231 -4.143140 -10.772827 -16.671054 1.764554 0.254900 0.131426 -61.444074 -10.156767 52.301774 176.515352 75.807928 178.706709 0.000000 0.000000 0.000000 
10.494249 90.923782 -19.716438 0.000000 0.000000 0.000000 16.624610 3.431042 0.183738 -55.953494 14.733201 18.475160 66.286754 2.463108 -4.190482 15.770403 -0.935699 8.294031 -2.763649 -1.165579 -0.235028 0.000000 0.000000 0.000000 16.819942 0.676573 0.396711 -29.945154 -7.717549 -9.557793 27.891627 -3.329652 5.348738 -7.316083 3.120411 -0.914472 -13.662957 -0.703859 1.100883 0.000000 0.000000 0.000000 18.426457 1.516036 -0.406793 6.511669 0.613460 -4.644656 5.525957 0.078814 1.051962 0.430698 0.120170 0.967322 0.000000 0.000000 0.000000 4.946219 -0.386802 2.259109 -10.189404 1.789738 -0.414019 -23.772190 -1.167244 12.850822 0.000000 0.000000 0.000000 4.405501 0.259464 1.950399 0.436325 5.090130 17.407161 0.015342 -3.096374 -5.419840 -59.553717 -3.211118 -23.933135 174.668250 -75.328258 176.917623 0.000000 0.000000 0.000000 5.940213 -0.133516 0.988769 -3.051686 -9.788472 -11.830414 0.973007 2.190578 2.470015 -48.187237 -7.822511 52.713570 175.634913 76.077160 179.373718 0.000000 0.000000 0.000000 
9.899265 89.693024 -19.080696 0.000000 0.000000 0.000000 17.758649 0.821017 -0.484792 -60.547858 16.353411 17.355381 59.458757 2.085499 -2.692703 13.211354 -2.166810 6.709098 -1.083708 -1.202544 1.136656 0.000000 0.000000 0.000000 18.376914 -0.944871 -0.255909 -22.653200 -7.202470 -6.802211 23.934489 -3.740800 4.552001 -12.128425 3.264454 0.304880 -12.408089 -0.453368 1.141679 0.000000 0.000000 0.000000 19.110932 0.043653 -1.348998 4.141609 1.537864 -4.486879 5.914149 0.423750 1.576473 1.016454 0.635809 1.029504 0.000000 0.000000 0.000000 4.210361 -0.085819 2.621662 -10.663766 1.580217 1.300118 -21.062181 0.040493 12.871699 0.000000 0.000000 0.000000 4.570076 0.667999 2.110525 1.052084 6.158551 5.291197 -2.110508 -5.836073 -4.227202 -40.740897 -0.213649 -26.756008 179.327464 -68.556357 -177.953257 0.000000 0.000000 0.000000 6.179380 0.473676 1.569854 -1.820530 -9.529610 -4.779255 -0.077424 3.411347 4.424855 -34.524168 -5.253300 52.775178 178.374502 77.302346 176.744805 0.000000 0.000000 0.000000 
9.414189 87.222038 -18.771637 0.000000 0.000000 0.000000 18.581596 -1.913087 -1.403155 -63.079345 17.407487 16.769501 53.410973 1.048061 -0.685139 7.487339 -3.458801 3.847424 1.029517 -0.931182 1.662581 0.000000 0.000000 0.000000 19.443146 -1.873959 -1.526415 -13.739551 -7.488267 -3.151367 22.669137 -4.851797 3.739817 -19.791436 2.518192 0.002686 -11.927376 -0.225969 1.389963 0.000000 0.000000 0.000000 18.531946 -1.045733 -2.442375 2.204741 2.546693 -4.012764 6.104122 0.876077 1.775310 1.768928 0.928482 0.839905 0.000000 0.000000 0.000000 3.418649 0.317686 2.615171 -10.375898 1.365929 2.822309 -17.618377 1.510660 12.667779 0.000000 0.000000 0.000000 4.773883 1.071958 1.925209 1.809833 6.515896 -6.797901 -3.908249 -6.383737 -2.629995 -21.930397 2.363418 -30.342327 -177.531056 -64.886620 -174.316058 0.000000 0.000000 0.000000 6.046017 1.088927 1.819450 -0.587312 -10.081031 2.579179 -0.732651 3.612079 5.581197 -23.121181 -4.225657 53.195620 -174.164455 79.464675 169.424659 0.000000 0.000000 0.000000 
